<svg width="790" height="845" viewBox="0 0 790 845" fill="none" xmlns="http://www.w3.org/2000/svg">
<path id="Vector" fill-rule="evenodd" clip-rule="evenodd" d="M652.088 325.281C660.313 388.588 704.501 453.45 673.469 510.92C642.663 567.972 553.33 561.343 502.094 603.068C437.94 655.313 423.766 771.158 341.025 781.652C261.603 791.725 216.525 697.608 158.415 646.657C104.776 599.627 36.2454 562.961 15.1671 495.944C-6.29119 427.718 16.786 354.261 45.3605 287.208C73.6512 220.82 108.058 147.859 176.25 117.945C242.161 89.0317 312.926 140.651 384.749 138.327C465.979 135.699 555.793 58.2838 620.549 103.569C684.525 148.308 642.228 249.387 652.088 325.281Z" fill="url(#paint0_linear)"/>
<defs>
<linearGradient id="paint0_linear" x1="1.6478" y1="446.512" x2="679.228" y2="463.941" gradientUnits="userSpaceOnUse">
<stop stop-color="#F4B08F"/>
<stop offset="1" stop-color="#FFEDDF"/>
</linearGradient>
</defs>
</svg>
